<?xml version="1.0" standalone="no"?>
<!DOCTYPE svg PUBLIC "-//W3C//DTD SVG 20010904//EN"
 "http://www.w3.org/TR/2001/REC-SVG-20010904/DTD/svg10.dtd">
<svg version="1.0" xmlns="http://www.w3.org/2000/svg"
 width="700.000000pt" height="700.000000pt" viewBox="0 0 700.000000 700.000000"
 preserveAspectRatio="xMidYMid meet">
<metadata>
Created by potrace 1.14, written by Peter Selinger 2001-2017
</metadata>
<g transform="translate(0.000000,700.000000) scale(0.100000,-0.100000)"
fill="#000000" stroke="none">
<path d="M5048 6616 c-1 -2 -61 -6 -133 -9 -369 -15 -745 -157 -1065 -402
-105 -80 -221 -200 -358 -370 -60 -74 -200 -329 -235 -428 -6 -15 -18 -2 -59
60 -29 43 -54 80 -57 83 -4 3 -31 34 -60 70 -213 253 -518 450 -837 540 -57
16 -121 32 -142 35 -21 3 -49 7 -62 10 -156 30 -413 23 -605 -16 -450 -92
-861 -377 -1105 -766 -82 -131 -179 -362 -211 -503 -41 -178 -59 -446 -39
-585 4 -33 11 -82 15 -110 10 -76 62 -254 101 -352 38 -95 94 -206 106 -211 5
-2 8 -8 8 -14 0 -15 113 -176 167 -238 114 -131 277 -272 380 -331 24 -13 43
-26 43 -29 -1 -3 -24 -30 -51 -60 -57 -61 -102 -144 -124 -223 -11 -43 -14
-218 -14 -972 -1 -622 2 -940 10 -980 26 -145 139 -299 264 -362 139 -70 -30
-65 2095 -65 1479 0 1928 2 1974 12 138 29 249 103 330 220 63 91 80 158 89
335 2 22 7 39 12 38 6 -1 102 -44 215 -96 113 -52 230 -106 260 -120 30 -13
96 -44 145 -67 50 -23 140 -64 200 -92 61 -28 151 -69 200 -93 225 -106 258
-111 342 -49 67 50 64 -10 61 1215 l-3 1106 -29 37 c-37 49 -95 76 -152 70
-23 -2 -89 -26 -146 -53 -57 -27 -191 -90 -298 -139 -107 -49 -239 -111 -293
-136 -55 -25 -100 -46 -102 -46 -1 0 -50 -22 -107 -49 -128 -60 -233 -109
-274 -127 l-31 -13 0 177 c0 166 -12 271 -34 314 -8 14 -4 19 18 24 143 31
377 123 518 204 258 147 507 386 662 634 103 166 215 430 238 565 3 19 7 37 9
40 5 7 11 48 31 186 15 99 15 361 0 465 -78 568 -385 1050 -865 1363 -178 115
-460 231 -644 263 -101 17 -174 26 -246 30 -47 3 -90 7 -97 9 -6 2 -13 2 -15
1z m109 -419 c55 -14 143 -67 195 -119 64 -64 101 -129 125 -221 56 -221 -100
-557 -308 -661 -59 -30 -78 -34 -141 -34 -64 0 -81 4 -141 35 -67 36 -197 159
-197 188 0 7 -3 15 -8 17 -4 2 -22 32 -39 68 -114 236 -90 452 67 610 94 94
192 131 330 126 52 -2 105 -6 117 -9z m-3251 -351 c106 -37 188 -103 237 -189
102 -183 45 -451 -134 -628 -84 -84 -152 -113 -245 -106 -151 11 -292 153
-363 364 -58 173 -25 339 93 457 108 108 277 150 412 102z m2189 -688 c138
-25 277 -99 378 -199 110 -110 145 -220 107 -336 -72 -220 -435 -409 -686
-357 -167 34 -305 158 -351 314 -47 163 -3 340 116 457 66 65 173 120 251 129
30 3 56 7 57 8 4 4 62 -4 128 -16z m2056 -2 c94 -13 208 -80 273 -159 31 -39
66 -97 67 -114 0 -5 5 -13 9 -18 17 -20 25 -80 25 -175 0 -89 -3 -100 -38
-174 -61 -129 -188 -233 -317 -261 -184 -40 -468 63 -608 221 -172 192 -128
398 120 560 151 99 316 141 469 120z m-5115 -263 c225 -84 370 -246 357 -398
-19 -215 -366 -426 -628 -381 -63 11 -156 59 -206 107 -190 182 -166 486 50
639 109 76 276 89 427 33z m1777 17 c177 -38 309 -198 316 -385 8 -247 -198
-442 -447 -422 -267 22 -512 218 -512 410 0 67 16 110 65 177 77 105 258 207
404 226 25 3 47 7 48 8 5 5 79 -4 126 -14z m2342 -666 c109 -52 225 -199 285
-364 26 -70 32 -104 35 -190 4 -91 1 -114 -19 -171 -113 -322 -515 -419 -754
-181 -67 67 -106 135 -126 220 -61 262 131 632 367 708 58 18 145 9 212 -22z
m-3257 -148 c176 -89 320 -390 283 -590 -36 -196 -205 -337 -405 -338 -262 -2
-452 234 -403 502 29 156 144 343 253 411 89 54 184 60 272 15z m1512 -392 c0
-2 14 -23 30 -47 17 -23 38 -53 48 -67 77 -109 243 -281 355 -369 37 -29 67
-54 67 -54 0 -7 -1060 0 -1061 6 0 5 19 25 42 45 170 147 312 328 410 521 l41
82 34 -57 c19 -31 34 -58 34 -60z"/>
</g>
</svg>
