<svg aria-hidden="true" style="position: absolute; width: 0; height: 0; overflow: hidden;" version="1.1" xmlns="http://www.w3.org/2000/svg" xmlns:xlink="http://www.w3.org/1999/xlink">
<defs>
<symbol id="logo-icon" viewBox="0 0 32 32">
<path d="M31.184 18.81c-0.25-0.134-0.55-0.131-0.797 0.016l-5.366 2.477v-1.408c0-0.326-0.067-0.64-0.189-0.922 3.914-0.851 6.848-4.33 6.848-8.499 0-4.806-3.898-8.704-8.704-8.704-3.712 0-6.874 2.33-8.125 5.603-1.363-2.291-3.856-3.83-6.717-3.83-4.314 0-7.814 3.498-7.814 7.818 0 2.858 1.536 5.347 3.824 6.71-0.541 0.435-0.893 1.088-0.893 1.827v7.965c0 1.306 1.082 2.368 2.41 2.368h16.95c1.328 0 2.41-1.062 2.41-2.368v-0.442l5.366 2.477c0.243 0.147 0.547 0.154 0.797 0.016s0.403-0.394 0.403-0.675v-9.75c0-0.282-0.154-0.541-0.403-0.678v0zM8.029 17.526c-1.002-0.048-1.802-0.87-1.795-1.885 0.003-1.040 0.854-2.522 1.894-2.515 1.040 0.003 1.878 1.491 1.875 2.531-0.003 1.011-0.806 1.827-1.805 1.869h-0.17zM22.947 17.35c-1.158-0.003-2.096-0.95-2.090-2.109 0.003-1.158 0.95-2.806 2.112-2.8 1.158 0.006 2.093 1.658 2.090 2.819-0.006 1.158-0.95 2.093-2.112 2.090zM27.763 8.394c1.158 0.003 2.096 0.947 2.093 2.109-0.006 1.158-0.95 2.096-2.109 2.090s-2.806-0.96-2.8-2.118c0.003-1.158 1.658-2.083 2.816-2.080v0zM23.005 3.597c1.158 0.003 2.096 0.947 2.090 2.109-0.006 1.158-0.947 2.723-2.109 2.717-1.158-0.006-2.096-1.574-2.093-2.736 0.010-1.158 0.954-2.096 2.112-2.090v0zM18.208 8.352c1.158 0.006 2.81 0.96 2.806 2.118-0.006 1.162-1.664 2.083-2.822 2.080-1.158-0.006-2.096-0.947-2.090-2.109 0.003-1.155 0.947-2.093 2.106-2.090v0zM17.894 17.526h-4.966c1.011-0.787 1.824-1.814 2.352-3.002 0.627 1.194 1.53 2.218 2.614 3.002zM12.435 9.491c1.040 0.003 1.882 0.851 1.878 1.894-0.003 1.040-0.854 1.882-1.894 1.878s-2.522-0.861-2.515-1.904c0.003-1.043 1.491-1.872 2.531-1.869zM8.163 5.181c1.040 0.003 1.882 0.851 1.878 1.894-0.003 1.040-0.851 2.445-1.894 2.442-1.040-0.003-1.882-1.414-1.878-2.458 0.003-1.040 0.851-1.882 1.894-1.878v0zM1.962 11.334c0.003-1.040 0.851-1.882 1.894-1.878 1.040 0.006 2.525 0.861 2.518 1.904-0.003 1.043-1.494 1.872-2.538 1.869-1.040-0.006-1.882-0.854-1.875-1.894z"></path>
</symbol>
</defs>
</svg>
